<mxfile host="app.diagrams.net" agent="Mozilla/5.0 (Windows NT 10.0; Win64; x64) AppleWebKit/537.36 (KHTML, like Gecko) Chrome/134.0.0.0 Safari/537.36" version="26.2.13" pages="4">
  <diagram name="Trang-1" id="KdP4MZPXBrI1FLs72im-">
    <mxGraphModel dx="1275" dy="718" grid="1" gridSize="10" guides="1" tooltips="1" connect="1" arrows="1" fold="1" page="1" pageScale="1" pageWidth="1169" pageHeight="1654" math="0" shadow="0">
      <root>
        <mxCell id="0" />
        <mxCell id="1" parent="0" />
        <mxCell id="UKlhcMxwEsxBg01EqykA-4" style="edgeStyle=orthogonalEdgeStyle;rounded=0;orthogonalLoop=1;jettySize=auto;html=1;exitX=0.5;exitY=1;exitDx=0;exitDy=0;" edge="1" parent="1" source="UKlhcMxwEsxBg01EqykA-2">
          <mxGeometry relative="1" as="geometry">
            <mxPoint x="357" y="280" as="targetPoint" />
          </mxGeometry>
        </mxCell>
        <mxCell id="UKlhcMxwEsxBg01EqykA-2" value="start" style="ellipse;whiteSpace=wrap;html=1;" vertex="1" parent="1">
          <mxGeometry x="277" y="120" width="160" height="80" as="geometry" />
        </mxCell>
        <mxCell id="UKlhcMxwEsxBg01EqykA-20" style="edgeStyle=orthogonalEdgeStyle;rounded=0;orthogonalLoop=1;jettySize=auto;html=1;exitX=1;exitY=0.5;exitDx=0;exitDy=0;entryX=0;entryY=0.5;entryDx=0;entryDy=0;" edge="1" parent="1" source="UKlhcMxwEsxBg01EqykA-5" target="UKlhcMxwEsxBg01EqykA-7">
          <mxGeometry relative="1" as="geometry" />
        </mxCell>
        <mxCell id="UKlhcMxwEsxBg01EqykA-21" value="đúng" style="edgeLabel;html=1;align=center;verticalAlign=middle;resizable=0;points=[];" vertex="1" connectable="0" parent="UKlhcMxwEsxBg01EqykA-20">
          <mxGeometry x="-0.4718" relative="1" as="geometry">
            <mxPoint as="offset" />
          </mxGeometry>
        </mxCell>
        <mxCell id="UKlhcMxwEsxBg01EqykA-28" style="edgeStyle=orthogonalEdgeStyle;rounded=0;orthogonalLoop=1;jettySize=auto;html=1;exitX=1;exitY=1;exitDx=0;exitDy=0;entryX=0;entryY=0.5;entryDx=0;entryDy=0;" edge="1" parent="1" source="UKlhcMxwEsxBg01EqykA-5" target="UKlhcMxwEsxBg01EqykA-27">
          <mxGeometry relative="1" as="geometry" />
        </mxCell>
        <mxCell id="UKlhcMxwEsxBg01EqykA-29" value="sai" style="edgeLabel;html=1;align=center;verticalAlign=middle;resizable=0;points=[];" vertex="1" connectable="0" parent="UKlhcMxwEsxBg01EqykA-28">
          <mxGeometry x="-0.4867" y="-2" relative="1" as="geometry">
            <mxPoint as="offset" />
          </mxGeometry>
        </mxCell>
        <mxCell id="UKlhcMxwEsxBg01EqykA-37" style="edgeStyle=orthogonalEdgeStyle;rounded=0;orthogonalLoop=1;jettySize=auto;html=1;exitX=0.5;exitY=1;exitDx=0;exitDy=0;" edge="1" parent="1" source="UKlhcMxwEsxBg01EqykA-5">
          <mxGeometry relative="1" as="geometry">
            <mxPoint x="356.7647058823529" y="480" as="targetPoint" />
          </mxGeometry>
        </mxCell>
        <mxCell id="UKlhcMxwEsxBg01EqykA-5" value="Nhập vào&amp;nbsp; a,b" style="shape=parallelogram;perimeter=parallelogramPerimeter;whiteSpace=wrap;html=1;fixedSize=1;" vertex="1" parent="1">
          <mxGeometry x="272" y="280" width="170" height="80" as="geometry" />
        </mxCell>
        <mxCell id="UKlhcMxwEsxBg01EqykA-11" style="edgeStyle=orthogonalEdgeStyle;rounded=0;orthogonalLoop=1;jettySize=auto;html=1;exitX=1;exitY=0.5;exitDx=0;exitDy=0;" edge="1" parent="1" source="UKlhcMxwEsxBg01EqykA-7" target="UKlhcMxwEsxBg01EqykA-12">
          <mxGeometry relative="1" as="geometry">
            <mxPoint x="607" y="320.4545454545454" as="targetPoint" />
          </mxGeometry>
        </mxCell>
        <mxCell id="UKlhcMxwEsxBg01EqykA-7" value="a&amp;lt;b" style="rhombus;whiteSpace=wrap;html=1;" vertex="1" parent="1">
          <mxGeometry x="477" y="240" width="110" height="80" as="geometry" />
        </mxCell>
        <mxCell id="UKlhcMxwEsxBg01EqykA-34" style="edgeStyle=orthogonalEdgeStyle;rounded=0;orthogonalLoop=1;jettySize=auto;html=1;exitX=1;exitY=0.5;exitDx=0;exitDy=0;" edge="1" parent="1" source="UKlhcMxwEsxBg01EqykA-12">
          <mxGeometry relative="1" as="geometry">
            <mxPoint x="767.2857142857144" y="280.1428571428572" as="targetPoint" />
          </mxGeometry>
        </mxCell>
        <mxCell id="UKlhcMxwEsxBg01EqykA-35" style="edgeStyle=orthogonalEdgeStyle;rounded=0;orthogonalLoop=1;jettySize=auto;html=1;exitX=1;exitY=0.5;exitDx=0;exitDy=0;" edge="1" parent="1" source="UKlhcMxwEsxBg01EqykA-12">
          <mxGeometry relative="1" as="geometry">
            <mxPoint x="810" y="279.66666666666663" as="targetPoint" />
          </mxGeometry>
        </mxCell>
        <mxCell id="UKlhcMxwEsxBg01EqykA-12" value="a là số bé hơn" style="rounded=0;whiteSpace=wrap;html=1;" vertex="1" parent="1">
          <mxGeometry x="637" y="240" width="130" height="80" as="geometry" />
        </mxCell>
        <mxCell id="UKlhcMxwEsxBg01EqykA-30" style="edgeStyle=orthogonalEdgeStyle;rounded=0;orthogonalLoop=1;jettySize=auto;html=1;exitX=1;exitY=0.5;exitDx=0;exitDy=0;" edge="1" parent="1" source="UKlhcMxwEsxBg01EqykA-27">
          <mxGeometry relative="1" as="geometry">
            <mxPoint x="637" y="399.7619047619047" as="targetPoint" />
          </mxGeometry>
        </mxCell>
        <mxCell id="UKlhcMxwEsxBg01EqykA-27" value="a&amp;lt;b" style="rhombus;whiteSpace=wrap;html=1;" vertex="1" parent="1">
          <mxGeometry x="477" y="360" width="110" height="80" as="geometry" />
        </mxCell>
        <mxCell id="UKlhcMxwEsxBg01EqykA-39" style="edgeStyle=orthogonalEdgeStyle;rounded=0;orthogonalLoop=1;jettySize=auto;html=1;exitX=1;exitY=0.5;exitDx=0;exitDy=0;" edge="1" parent="1" source="UKlhcMxwEsxBg01EqykA-31">
          <mxGeometry relative="1" as="geometry">
            <mxPoint x="810" y="400.41176470588243" as="targetPoint" />
          </mxGeometry>
        </mxCell>
        <mxCell id="UKlhcMxwEsxBg01EqykA-31" value="b là số bé hơn" style="rounded=0;whiteSpace=wrap;html=1;" vertex="1" parent="1">
          <mxGeometry x="637" y="360" width="130" height="80" as="geometry" />
        </mxCell>
        <mxCell id="UKlhcMxwEsxBg01EqykA-36" value="in kết quả ra màn hình&amp;nbsp;" style="shape=parallelogram;perimeter=parallelogramPerimeter;whiteSpace=wrap;html=1;fixedSize=1;" vertex="1" parent="1">
          <mxGeometry x="800" y="240" width="170" height="80" as="geometry" />
        </mxCell>
        <mxCell id="UKlhcMxwEsxBg01EqykA-38" value="end" style="ellipse;whiteSpace=wrap;html=1;" vertex="1" parent="1">
          <mxGeometry x="277" y="480" width="160" height="80" as="geometry" />
        </mxCell>
        <mxCell id="UKlhcMxwEsxBg01EqykA-40" value="in kết quả ra màn hình&amp;nbsp;" style="shape=parallelogram;perimeter=parallelogramPerimeter;whiteSpace=wrap;html=1;fixedSize=1;" vertex="1" parent="1">
          <mxGeometry x="800" y="360" width="170" height="80" as="geometry" />
        </mxCell>
      </root>
    </mxGraphModel>
  </diagram>
  <diagram id="oGEldYr9rMfgV83l8jLY" name="Trang-2">
    <mxGraphModel dx="1658" dy="934" grid="1" gridSize="10" guides="1" tooltips="1" connect="1" arrows="1" fold="1" page="1" pageScale="1" pageWidth="1169" pageHeight="1654" math="0" shadow="0">
      <root>
        <mxCell id="0" />
        <mxCell id="1" parent="0" />
        <mxCell id="I80GfJ270Cuhcyg7jY_--2" style="edgeStyle=orthogonalEdgeStyle;rounded=0;orthogonalLoop=1;jettySize=auto;html=1;exitX=0.5;exitY=1;exitDx=0;exitDy=0;" edge="1" parent="1" source="I80GfJ270Cuhcyg7jY_--1">
          <mxGeometry relative="1" as="geometry">
            <mxPoint x="520.3333333333333" y="440" as="targetPoint" />
          </mxGeometry>
        </mxCell>
        <mxCell id="I80GfJ270Cuhcyg7jY_--1" value="start" style="ellipse;whiteSpace=wrap;html=1;" vertex="1" parent="1">
          <mxGeometry x="440" y="280" width="160" height="80" as="geometry" />
        </mxCell>
        <mxCell id="9-HuHL3pTZjDwjYB1JFv-2" style="edgeStyle=orthogonalEdgeStyle;rounded=0;orthogonalLoop=1;jettySize=auto;html=1;exitX=1;exitY=0.5;exitDx=0;exitDy=0;" edge="1" parent="1" source="9-HuHL3pTZjDwjYB1JFv-1">
          <mxGeometry relative="1" as="geometry">
            <mxPoint x="640" y="479.66666666666674" as="targetPoint" />
          </mxGeometry>
        </mxCell>
        <mxCell id="ozPCV1_HubHqo3M6jHKB-5" style="edgeStyle=orthogonalEdgeStyle;rounded=0;orthogonalLoop=1;jettySize=auto;html=1;exitX=0.5;exitY=1;exitDx=0;exitDy=0;" edge="1" parent="1" source="9-HuHL3pTZjDwjYB1JFv-1">
          <mxGeometry relative="1" as="geometry">
            <mxPoint x="520.25" y="650" as="targetPoint" />
          </mxGeometry>
        </mxCell>
        <mxCell id="9-HuHL3pTZjDwjYB1JFv-1" value="Nhập vào n" style="shape=parallelogram;perimeter=parallelogramPerimeter;whiteSpace=wrap;html=1;fixedSize=1;" vertex="1" parent="1">
          <mxGeometry x="440" y="440" width="160" height="80" as="geometry" />
        </mxCell>
        <mxCell id="9-HuHL3pTZjDwjYB1JFv-6" style="edgeStyle=orthogonalEdgeStyle;rounded=0;orthogonalLoop=1;jettySize=auto;html=1;exitX=1;exitY=0.5;exitDx=0;exitDy=0;" edge="1" parent="1" source="9-HuHL3pTZjDwjYB1JFv-4">
          <mxGeometry relative="1" as="geometry">
            <mxPoint x="800" y="479.66666666666674" as="targetPoint" />
          </mxGeometry>
        </mxCell>
        <mxCell id="9-HuHL3pTZjDwjYB1JFv-8" value="yes" style="edgeLabel;html=1;align=center;verticalAlign=middle;resizable=0;points=[];" vertex="1" connectable="0" parent="9-HuHL3pTZjDwjYB1JFv-6">
          <mxGeometry x="-0.1198" relative="1" as="geometry">
            <mxPoint as="offset" />
          </mxGeometry>
        </mxCell>
        <mxCell id="9-HuHL3pTZjDwjYB1JFv-9" style="rounded=0;orthogonalLoop=1;jettySize=auto;html=1;exitX=1;exitY=1;exitDx=0;exitDy=0;elbow=vertical;" edge="1" parent="1" source="9-HuHL3pTZjDwjYB1JFv-4" target="9-HuHL3pTZjDwjYB1JFv-11">
          <mxGeometry relative="1" as="geometry">
            <mxPoint x="800" y="560" as="targetPoint" />
          </mxGeometry>
        </mxCell>
        <mxCell id="9-HuHL3pTZjDwjYB1JFv-10" value="no" style="edgeLabel;html=1;align=center;verticalAlign=middle;resizable=0;points=[];" vertex="1" connectable="0" parent="9-HuHL3pTZjDwjYB1JFv-9">
          <mxGeometry x="-0.2" relative="1" as="geometry">
            <mxPoint as="offset" />
          </mxGeometry>
        </mxCell>
        <mxCell id="9-HuHL3pTZjDwjYB1JFv-4" value="n%2" style="rounded=0;whiteSpace=wrap;html=1;" vertex="1" parent="1">
          <mxGeometry x="640" y="440" width="120" height="80" as="geometry" />
        </mxCell>
        <mxCell id="ozPCV1_HubHqo3M6jHKB-2" style="edgeStyle=orthogonalEdgeStyle;rounded=0;orthogonalLoop=1;jettySize=auto;html=1;exitX=1;exitY=0.5;exitDx=0;exitDy=0;" edge="1" parent="1" source="9-HuHL3pTZjDwjYB1JFv-7">
          <mxGeometry relative="1" as="geometry">
            <mxPoint x="930" y="479.57894736842115" as="targetPoint" />
          </mxGeometry>
        </mxCell>
        <mxCell id="9-HuHL3pTZjDwjYB1JFv-7" value="n%2==0" style="rhombus;whiteSpace=wrap;html=1;" vertex="1" parent="1">
          <mxGeometry x="800" y="440" width="90" height="80" as="geometry" />
        </mxCell>
        <mxCell id="ozPCV1_HubHqo3M6jHKB-3" style="edgeStyle=orthogonalEdgeStyle;rounded=0;orthogonalLoop=1;jettySize=auto;html=1;exitX=1;exitY=0.5;exitDx=0;exitDy=0;" edge="1" parent="1" source="9-HuHL3pTZjDwjYB1JFv-11">
          <mxGeometry relative="1" as="geometry">
            <mxPoint x="920" y="599.578947368421" as="targetPoint" />
          </mxGeometry>
        </mxCell>
        <mxCell id="9-HuHL3pTZjDwjYB1JFv-11" value="n%2==0" style="rhombus;whiteSpace=wrap;html=1;" vertex="1" parent="1">
          <mxGeometry x="805" y="560" width="80" height="80" as="geometry" />
        </mxCell>
        <mxCell id="ozPCV1_HubHqo3M6jHKB-1" value="in ra số chẵn" style="shape=parallelogram;perimeter=parallelogramPerimeter;whiteSpace=wrap;html=1;fixedSize=1;" vertex="1" parent="1">
          <mxGeometry x="920" y="440" width="140" height="80" as="geometry" />
        </mxCell>
        <mxCell id="ozPCV1_HubHqo3M6jHKB-4" value="in ra số lẻ" style="shape=parallelogram;perimeter=parallelogramPerimeter;whiteSpace=wrap;html=1;fixedSize=1;" vertex="1" parent="1">
          <mxGeometry x="910" y="560" width="140" height="80" as="geometry" />
        </mxCell>
        <mxCell id="ozPCV1_HubHqo3M6jHKB-7" value="end" style="ellipse;whiteSpace=wrap;html=1;" vertex="1" parent="1">
          <mxGeometry x="440" y="650" width="160" height="80" as="geometry" />
        </mxCell>
      </root>
    </mxGraphModel>
  </diagram>
  <diagram id="rnyqIWs_Cf4sCDWxG3kA" name="Trang-3">
    <mxGraphModel dx="1507" dy="849" grid="1" gridSize="10" guides="1" tooltips="1" connect="1" arrows="1" fold="1" page="1" pageScale="1" pageWidth="1169" pageHeight="1654" math="0" shadow="0">
      <root>
        <mxCell id="0" />
        <mxCell id="1" parent="0" />
        <mxCell id="L2ec6S6OeMg1dpHUttvI-2" style="edgeStyle=orthogonalEdgeStyle;rounded=0;orthogonalLoop=1;jettySize=auto;html=1;exitX=0.5;exitY=1;exitDx=0;exitDy=0;" edge="1" parent="1" source="L2ec6S6OeMg1dpHUttvI-1">
          <mxGeometry relative="1" as="geometry">
            <mxPoint x="439.8695652173915" y="320" as="targetPoint" />
          </mxGeometry>
        </mxCell>
        <mxCell id="L2ec6S6OeMg1dpHUttvI-1" value="start" style="ellipse;whiteSpace=wrap;html=1;" vertex="1" parent="1">
          <mxGeometry x="360" y="160" width="160" height="80" as="geometry" />
        </mxCell>
        <mxCell id="zE46w6w8-HFvYd_pWUqw-2" style="edgeStyle=orthogonalEdgeStyle;rounded=0;orthogonalLoop=1;jettySize=auto;html=1;exitX=1;exitY=0.5;exitDx=0;exitDy=0;" edge="1" parent="1" source="zE46w6w8-HFvYd_pWUqw-1">
          <mxGeometry relative="1" as="geometry">
            <mxPoint x="560" y="359.8888888888889" as="targetPoint" />
          </mxGeometry>
        </mxCell>
        <mxCell id="fO1rJDT8_ZfZle3qVGCd-3" style="edgeStyle=orthogonalEdgeStyle;rounded=0;orthogonalLoop=1;jettySize=auto;html=1;exitX=0.5;exitY=1;exitDx=0;exitDy=0;" edge="1" parent="1" source="zE46w6w8-HFvYd_pWUqw-1">
          <mxGeometry relative="1" as="geometry">
            <mxPoint x="440.1111111111111" y="480" as="targetPoint" />
          </mxGeometry>
        </mxCell>
        <mxCell id="zE46w6w8-HFvYd_pWUqw-1" value="Nhập vào num1,num2" style="shape=parallelogram;perimeter=parallelogramPerimeter;whiteSpace=wrap;html=1;fixedSize=1;" vertex="1" parent="1">
          <mxGeometry x="360" y="320" width="160" height="80" as="geometry" />
        </mxCell>
        <mxCell id="fO1rJDT8_ZfZle3qVGCd-2" style="edgeStyle=orthogonalEdgeStyle;rounded=0;orthogonalLoop=1;jettySize=auto;html=1;exitX=1;exitY=0.5;exitDx=0;exitDy=0;" edge="1" parent="1" source="zE46w6w8-HFvYd_pWUqw-3">
          <mxGeometry relative="1" as="geometry">
            <mxPoint x="720" y="359.8888888888889" as="targetPoint" />
          </mxGeometry>
        </mxCell>
        <mxCell id="zE46w6w8-HFvYd_pWUqw-3" value="total=num1+num2" style="rounded=0;whiteSpace=wrap;html=1;" vertex="1" parent="1">
          <mxGeometry x="560" y="320" width="120" height="80" as="geometry" />
        </mxCell>
        <mxCell id="fO1rJDT8_ZfZle3qVGCd-1" value="Hiển thị tổng ra màn hình" style="shape=parallelogram;perimeter=parallelogramPerimeter;whiteSpace=wrap;html=1;fixedSize=1;" vertex="1" parent="1">
          <mxGeometry x="710" y="320" width="170" height="80" as="geometry" />
        </mxCell>
        <mxCell id="fO1rJDT8_ZfZle3qVGCd-4" value="End" style="ellipse;whiteSpace=wrap;html=1;" vertex="1" parent="1">
          <mxGeometry x="360" y="480" width="160" height="80" as="geometry" />
        </mxCell>
      </root>
    </mxGraphModel>
  </diagram>
  <diagram id="nHwvN2rSXZ4LbpShoUt8" name="Trang-4">
    <mxGraphModel dx="829" dy="467" grid="1" gridSize="10" guides="1" tooltips="1" connect="1" arrows="1" fold="1" page="1" pageScale="1" pageWidth="1169" pageHeight="1654" math="0" shadow="0">
      <root>
        <mxCell id="0" />
        <mxCell id="1" parent="0" />
        <mxCell id="_nlHf4mMULwU0o5nViI1-2" style="edgeStyle=orthogonalEdgeStyle;rounded=0;orthogonalLoop=1;jettySize=auto;html=1;exitX=0.5;exitY=1;exitDx=0;exitDy=0;" edge="1" parent="1" source="_nlHf4mMULwU0o5nViI1-1">
          <mxGeometry relative="1" as="geometry">
            <mxPoint x="440" y="360" as="targetPoint" />
          </mxGeometry>
        </mxCell>
        <mxCell id="_nlHf4mMULwU0o5nViI1-1" value="Start" style="ellipse;whiteSpace=wrap;html=1;" vertex="1" parent="1">
          <mxGeometry x="360" y="200" width="160" height="80" as="geometry" />
        </mxCell>
        <mxCell id="_nlHf4mMULwU0o5nViI1-4" style="edgeStyle=orthogonalEdgeStyle;rounded=0;orthogonalLoop=1;jettySize=auto;html=1;exitX=1;exitY=0.5;exitDx=0;exitDy=0;" edge="1" parent="1" source="_nlHf4mMULwU0o5nViI1-3">
          <mxGeometry relative="1" as="geometry">
            <mxPoint x="560" y="400" as="targetPoint" />
          </mxGeometry>
        </mxCell>
        <mxCell id="_nlHf4mMULwU0o5nViI1-7" value="đúng" style="edgeLabel;html=1;align=center;verticalAlign=middle;resizable=0;points=[];" vertex="1" connectable="0" parent="_nlHf4mMULwU0o5nViI1-4">
          <mxGeometry x="-0.0892" y="-1" relative="1" as="geometry">
            <mxPoint x="4" as="offset" />
          </mxGeometry>
        </mxCell>
        <mxCell id="_nlHf4mMULwU0o5nViI1-9" style="rounded=0;orthogonalLoop=1;jettySize=auto;html=1;exitX=1;exitY=1;exitDx=0;exitDy=0;entryX=0;entryY=0.5;entryDx=0;entryDy=0;" edge="1" parent="1" source="_nlHf4mMULwU0o5nViI1-3" target="_nlHf4mMULwU0o5nViI1-10">
          <mxGeometry relative="1" as="geometry">
            <mxPoint x="530" y="490" as="targetPoint" />
          </mxGeometry>
        </mxCell>
        <mxCell id="_nlHf4mMULwU0o5nViI1-11" value="no" style="edgeLabel;html=1;align=center;verticalAlign=middle;resizable=0;points=[];" vertex="1" connectable="0" parent="_nlHf4mMULwU0o5nViI1-9">
          <mxGeometry x="0.0051" y="2" relative="1" as="geometry">
            <mxPoint as="offset" />
          </mxGeometry>
        </mxCell>
        <mxCell id="_nlHf4mMULwU0o5nViI1-25" style="edgeStyle=orthogonalEdgeStyle;rounded=0;orthogonalLoop=1;jettySize=auto;html=1;exitX=0.5;exitY=1;exitDx=0;exitDy=0;entryX=0.5;entryY=0;entryDx=0;entryDy=0;" edge="1" parent="1" source="_nlHf4mMULwU0o5nViI1-3" target="_nlHf4mMULwU0o5nViI1-23">
          <mxGeometry relative="1" as="geometry" />
        </mxCell>
        <mxCell id="_nlHf4mMULwU0o5nViI1-3" value="Nhập điểm" style="shape=parallelogram;perimeter=parallelogramPerimeter;whiteSpace=wrap;html=1;fixedSize=1;" vertex="1" parent="1">
          <mxGeometry x="360" y="360" width="160" height="80" as="geometry" />
        </mxCell>
        <mxCell id="_nlHf4mMULwU0o5nViI1-12" style="edgeStyle=orthogonalEdgeStyle;rounded=0;orthogonalLoop=1;jettySize=auto;html=1;exitX=1;exitY=0.5;exitDx=0;exitDy=0;" edge="1" parent="1" source="_nlHf4mMULwU0o5nViI1-6" target="_nlHf4mMULwU0o5nViI1-13">
          <mxGeometry relative="1" as="geometry">
            <mxPoint x="690" y="400" as="targetPoint" />
          </mxGeometry>
        </mxCell>
        <mxCell id="_nlHf4mMULwU0o5nViI1-6" value="điểm &amp;gt; 5" style="rhombus;whiteSpace=wrap;html=1;" vertex="1" parent="1">
          <mxGeometry x="560" y="360" width="100" height="80" as="geometry" />
        </mxCell>
        <mxCell id="_nlHf4mMULwU0o5nViI1-14" style="edgeStyle=orthogonalEdgeStyle;rounded=0;orthogonalLoop=1;jettySize=auto;html=1;exitX=1;exitY=0.5;exitDx=0;exitDy=0;" edge="1" parent="1" source="_nlHf4mMULwU0o5nViI1-10">
          <mxGeometry relative="1" as="geometry">
            <mxPoint x="700" y="500" as="targetPoint" />
          </mxGeometry>
        </mxCell>
        <mxCell id="_nlHf4mMULwU0o5nViI1-10" value="điểm &amp;gt; 5" style="rhombus;whiteSpace=wrap;html=1;" vertex="1" parent="1">
          <mxGeometry x="530" y="460" width="110" height="80" as="geometry" />
        </mxCell>
        <mxCell id="_nlHf4mMULwU0o5nViI1-18" style="edgeStyle=orthogonalEdgeStyle;rounded=0;orthogonalLoop=1;jettySize=auto;html=1;exitX=1;exitY=0.5;exitDx=0;exitDy=0;" edge="1" parent="1" source="_nlHf4mMULwU0o5nViI1-13">
          <mxGeometry relative="1" as="geometry">
            <mxPoint x="860" y="400" as="targetPoint" />
          </mxGeometry>
        </mxCell>
        <mxCell id="_nlHf4mMULwU0o5nViI1-13" value="Đạt" style="rounded=0;whiteSpace=wrap;html=1;" vertex="1" parent="1">
          <mxGeometry x="700" y="360" width="120" height="80" as="geometry" />
        </mxCell>
        <mxCell id="_nlHf4mMULwU0o5nViI1-20" style="edgeStyle=orthogonalEdgeStyle;rounded=0;orthogonalLoop=1;jettySize=auto;html=1;exitX=1;exitY=0.5;exitDx=0;exitDy=0;" edge="1" parent="1" source="_nlHf4mMULwU0o5nViI1-15">
          <mxGeometry relative="1" as="geometry">
            <mxPoint x="860" y="505" as="targetPoint" />
          </mxGeometry>
        </mxCell>
        <mxCell id="_nlHf4mMULwU0o5nViI1-15" value="Không đạt" style="rounded=0;whiteSpace=wrap;html=1;" vertex="1" parent="1">
          <mxGeometry x="700" y="470" width="120" height="70" as="geometry" />
        </mxCell>
        <mxCell id="_nlHf4mMULwU0o5nViI1-19" value="&#xa;&lt;span style=&quot;color: rgb(0, 0, 0); font-family: Helvetica; font-size: 12px; font-style: normal; font-variant-ligatures: normal; font-variant-caps: normal; font-weight: 400; letter-spacing: normal; orphans: 2; text-align: center; text-indent: 0px; text-transform: none; widows: 2; word-spacing: 0px; -webkit-text-stroke-width: 0px; white-space: normal; background-color: rgb(236, 236, 236); text-decoration-thickness: initial; text-decoration-style: initial; text-decoration-color: initial; display: inline !important; float: none;&quot;&gt;Hiển thị xếp loại&lt;/span&gt;&#xa;&#xa;" style="shape=parallelogram;perimeter=parallelogramPerimeter;whiteSpace=wrap;html=1;fixedSize=1;" vertex="1" parent="1">
          <mxGeometry x="850" y="360" width="130" height="80" as="geometry" />
        </mxCell>
        <mxCell id="_nlHf4mMULwU0o5nViI1-21" value="&#xa;&lt;span style=&quot;color: rgb(0, 0, 0); font-family: Helvetica; font-size: 12px; font-style: normal; font-variant-ligatures: normal; font-variant-caps: normal; font-weight: 400; letter-spacing: normal; orphans: 2; text-align: center; text-indent: 0px; text-transform: none; widows: 2; word-spacing: 0px; -webkit-text-stroke-width: 0px; white-space: normal; background-color: rgb(236, 236, 236); text-decoration-thickness: initial; text-decoration-style: initial; text-decoration-color: initial; display: inline !important; float: none;&quot;&gt;Hiển thị xếp loại&lt;/span&gt;&#xa;&#xa;" style="shape=parallelogram;perimeter=parallelogramPerimeter;whiteSpace=wrap;html=1;fixedSize=1;" vertex="1" parent="1">
          <mxGeometry x="850" y="465" width="130" height="80" as="geometry" />
        </mxCell>
        <mxCell id="_nlHf4mMULwU0o5nViI1-23" value="End" style="ellipse;whiteSpace=wrap;html=1;" vertex="1" parent="1">
          <mxGeometry x="360" y="560" width="160" height="80" as="geometry" />
        </mxCell>
      </root>
    </mxGraphModel>
  </diagram>
</mxfile>
